<?xml version="1.0" encoding="UTF-8" standalone="no"?>
<!-- Created with Inkscape (http://www.inkscape.org/) -->

<svg
   xmlns:dc="http://purl.org/dc/elements/1.1/"
   xmlns:cc="http://creativecommons.org/ns#"
   xmlns:rdf="http://www.w3.org/1999/02/22-rdf-syntax-ns#"
   xmlns:svg="http://www.w3.org/2000/svg"
   xmlns="http://www.w3.org/2000/svg"
   version="1.1"
   width="60"
   height="80.000206"
   id="svg2">
  <defs
     id="defs4" />
  <metadata
     id="metadata7">
    <rdf:RDF>
      <cc:Work
         rdf:about="">
        <dc:format>image/svg+xml</dc:format>
        <dc:type
           rdf:resource="http://purl.org/dc/dcmitype/StillImage" />
        <dc:title></dc:title>
      </cc:Work>
    </rdf:RDF>
  </metadata>
  <g
     transform="translate(0,-972.3622)"
     id="layer1">
    <path
       d="m 17.099541,1031.3737 c 0,-11.5436 -0.0099,-20.9964 -0.0219,-21.0061 -0.012,-0.01 -3.859443,-0.039 -8.5497712,-0.065 L 0,1010.2554 14.821069,991.43071 c 8.15159,-10.3536 14.886849,-18.89063 14.967246,-18.97119 0.116145,-0.11638 0.173622,-0.12527 0.279764,-0.0433 0.379038,0.29281 6.951812,8.58411 22.929354,28.92448 L 60,1010.2554 l -4.431875,0.053 c -2.43753,0.029 -6.27498,0.058 -8.527667,0.065 l -4.095795,0.012 0,20.9885 0,20.9885 -12.92256,0 -12.922562,0 0,-20.9885 z"
       id="path2989"
       style="fill:#000000;stroke:none" />
  </g>
</svg>
